# xmcd
#
# Track frame offsets:
#	150
#	13701
#	25400
#	40637
#	67930
#	84870
#	99012
#	115582
#	132307
#	146969
#	157903
#	170602
#	184201
#	201430
#
# Disc length: 2860 seconds
#
# Revision: 1
# Processed by: cddbd v1.4PL0 Copyright (c) Steve Scherf et al.
# Submitted via: audiograbber 1.82.02
#
DISCID=b10b2a0e
DTITLE=Edwin Kimmler - reflections
DYEAR=2003
DGENRE=Blues and Boogie
TTITLE0=Promised Land
TTITLE1=There's more
TTITLE2=Don't touch me tomato
TTITLE3=Crying alone
TTITLE4=St. Louis Boogie
TTITLE5=Illusions
TTITLE6=Blind
TTITLE7=Tell me the truth
TTITLE8=Bel ami
TTITLE9=Two colors
TTITLE10=Sehnsucht
TTITLE11=Deve ser amor
TTITLE12=Mercury Blues
TTITLE13=Ungewissheit
EXTD=
EXTT0=
EXTT1=
EXTT2=
EXTT3=
EXTT4=
EXTT5=
EXTT6=
EXTT7=
EXTT8=
EXTT9=
EXTT10=
EXTT11=
EXTT12=
EXTT13=
PLAYORDER=
